<?xml version="1.0" standalone="no"?>
<!DOCTYPE svg PUBLIC "-//W3C//DTD SVG 20010904//EN"
 "http://www.w3.org/TR/2001/REC-SVG-20010904/DTD/svg10.dtd">
<svg version="1.0" xmlns="http://www.w3.org/2000/svg"
 width="500.000000pt" height="459.000000pt" viewBox="0 0 500.000000 459.000000"
 preserveAspectRatio="xMidYMid meet">

<g transform="translate(0.000000,459.000000) scale(0.100000,-0.100000)"
fill="#F6CE21" stroke="none">
<path d="M1282 4556 c-12 -13 -22 -29 -22 -35 0 -16 -11 -13 -26 7 -12 16 -13
16 -14 -4 0 -12 -9 -33 -20 -47 -11 -14 -20 -29 -20 -34 0 -4 -14 -17 -30 -28
-16 -11 -30 -27 -30 -35 0 -11 -6 -9 -21 7 -21 21 -22 21 -52 3 -16 -10 -37
-16 -45 -12 -11 4 -14 1 -10 -10 5 -11 -7 -22 -43 -38 -27 -13 -49 -27 -49
-32 0 -5 9 -4 21 2 25 14 32 9 23 -14 -5 -14 -9 -15 -15 -4 -6 9 -9 7 -9 -9 0
-20 3 -21 25 -13 14 5 29 9 33 9 4 -1 9 0 12 1 15 6 50 6 50 -1 0 -8 -90 -69
-134 -90 -16 -8 -35 -24 -43 -35 -12 -19 -12 -24 2 -38 10 -10 12 -16 4 -16
-9 0 -9 -3 0 -14 7 -8 18 -13 25 -12 17 2 46 31 46 46 0 6 5 8 13 4 8 -5 8 -2
-2 9 -15 18 -5 22 19 7 10 -6 21 -4 35 8 13 11 10 4 -8 -20 -28 -38 -25 -46
16 -39 4 0 7 -4 7 -10 0 -8 17 -10 49 -7 27 3 56 1 64 -4 11 -6 17 -3 21 10 4
10 18 25 31 32 30 16 31 24 4 61 -22 32 -39 38 -39 14 0 -8 -4 -15 -9 -15 -5
0 -11 -10 -15 -22 -5 -21 -6 -22 -22 -6 -15 15 -19 15 -41 1 -34 -22 -44 -5
-10 19 15 11 27 26 27 33 0 7 15 17 32 21 18 3 42 13 54 20 25 17 34 10 34
-27 0 -41 24 -42 62 -2 18 20 43 47 56 60 21 22 21 26 7 53 -18 34 -18 40 -5
40 6 0 10 -8 10 -18 0 -10 6 -27 14 -38 14 -18 15 -18 21 -1 4 9 17 17 29 17
11 0 26 4 32 8 12 8 12 61 0 80 -4 7 -9 22 -11 34 -5 26 -66 128 -77 128 -4 0
-8 -6 -8 -12 -1 -7 -6 -3 -13 9 l-12 22 -23 -23z m-30 -251 c-5 -26 -19 -41
-29 -31 -5 5 23 56 31 56 2 0 1 -11 -2 -25z"/>
<path d="M3623 4533 c-9 -3 -10 -10 -3 -24 10 -17 18 -78 23 -158 1 -19 7 -36
13 -38 7 -2 10 6 6 23 -5 27 -1 28 56 7 16 -7 15 8 -4 57 -16 40 -16 41 11 81
30 46 27 58 -9 41 -19 -9 -27 -8 -36 4 -12 14 -34 17 -57 7z"/>
<path d="M3543 4489 c-17 -17 -5 -43 13 -28 15 12 19 39 6 39 -4 0 -13 -5 -19
-11z"/>
<path d="M3280 4470 c-23 -7 -20 -10 15 -14 6 -1 15 -5 22 -9 6 -4 15 -2 19 4
3 6 0 15 -7 20 -16 10 -15 10 -49 -1z"/>
<path d="M3409 4391 c7 -12 7 -22 2 -26 -5 -3 -12 3 -15 12 -3 11 -4 8 -3 -7
3 -33 14 -40 49 -28 28 10 28 11 11 30 -10 11 -26 24 -36 30 -16 8 -17 7 -8
-11z"/>
<path d="M3485 4394 c-14 -11 -16 -18 -7 -21 6 -3 12 -14 12 -24 0 -13 4 -18
12 -13 8 5 9 2 5 -10 -5 -14 -3 -17 8 -12 17 6 21 -9 4 -20 -6 -3 -8 -17 -4
-32 l7 -27 -23 30 c-13 17 -24 32 -26 35 -7 8 -22 -24 -16 -34 4 -5 -1 -7 -9
-3 -16 6 -28 -19 -34 -71 -2 -13 -8 -30 -15 -38 -7 -9 -7 -14 -1 -14 13 0 34
-59 25 -73 -7 -12 75 -3 88 10 5 5 -4 23 -21 41 -27 30 -28 32 -10 42 16 9 18
15 9 37 -6 16 -6 30 0 36 5 5 13 -5 20 -26 7 -19 18 -38 25 -40 10 -4 14 -24
13 -67 0 -61 0 -61 -27 -55 -44 10 -53 -13 -24 -65 13 -25 30 -57 36 -72 14
-32 12 -31 56 -19 24 7 32 6 32 -3 0 -7 -12 -13 -30 -13 -35 0 -48 -9 -33 -24
6 -6 9 -26 6 -45 -5 -30 -3 -34 16 -34 11 0 21 -5 21 -11 0 -5 5 -7 10 -4 6 4
32 6 58 6 57 0 155 26 147 39 -4 6 4 14 17 19 21 8 21 10 5 16 -10 4 -16 14
-13 21 3 7 -3 18 -12 24 -16 9 -16 11 -1 20 14 8 11 15 -22 52 -22 23 -44 59
-51 79 -6 21 -15 36 -19 33 -5 -3 -9 0 -9 6 0 7 9 14 20 17 23 6 23 7 11 51
-6 20 -6 32 0 32 5 0 9 5 9 10 0 6 -6 10 -14 10 -10 0 -16 19 -21 60 -4 33
-12 60 -17 60 -6 0 -7 -11 -4 -26 5 -19 3 -25 -6 -21 -7 2 -12 10 -10 16 1 7
-2 10 -7 7 -5 -4 -12 0 -14 6 -3 7 -6 -3 -8 -22 -1 -19 -3 -39 -4 -45 -2 -5
-3 -18 -4 -27 -2 -41 -19 -13 -35 60 -25 111 -31 127 -44 125 -6 -2 -9 4 -6
12 7 18 0 19 -28 4 -15 -8 -19 -8 -14 0 10 16 -6 13 -29 -5z m135 -436 c0 -4
-9 -3 -20 4 -11 7 -20 19 -20 27 0 11 5 10 20 -4 11 -10 20 -22 20 -27z"/>
<path d="M870 4351 c0 -5 5 -13 10 -16 6 -3 10 -2 10 4 0 5 -4 13 -10 16 -5 3
-10 2 -10 -4z"/>
<path d="M2209 4336 c14 -14 31 -26 39 -26 24 0 7 24 -29 38 l-34 14 24 -26z"/>
<path d="M812 4288 c-31 -32 -32 -32 -78 -20 -56 15 -63 11 -34 -18 16 -16 19
-25 11 -33 -6 -6 -11 -19 -11 -28 0 -21 26 -44 34 -30 10 16 118 71 139 71 11
0 17 5 14 13 -2 6 -13 10 -23 9 -14 -3 -16 -1 -8 8 11 11 7 60 -5 60 -3 0 -21
-14 -39 -32z"/>
<path d="M895 4261 c-3 -5 -1 -12 5 -16 5 -3 10 1 10 9 0 18 -6 21 -15 7z"/>
<path d="M2283 4228 c4 -10 2 -20 -3 -23 -6 -4 -10 2 -10 12 -1 14 -4 13 -15
-7 -8 -15 -10 -29 -4 -36 5 -6 7 -13 5 -15 -2 -2 10 -4 28 -5 30 0 32 2 28 25
-3 14 -12 35 -20 46 -11 15 -13 16 -9 3z"/>
<path d="M2443 4233 c-14 -5 -18 -33 -5 -33 5 0 16 6 26 13 15 11 16 15 5 19
-8 3 -20 3 -26 1z"/>
<path d="M2527 4223 c-3 -4 -8 -24 -12 -43 -4 -19 -14 -44 -21 -55 -8 -11 -14
-27 -14 -36 0 -9 -6 -22 -14 -28 -8 -7 -24 -31 -36 -54 -12 -23 -36 -55 -52
-72 l-30 -30 7 35 c4 19 17 62 30 95 34 89 35 95 25 95 -5 0 -7 7 -4 15 6 14
-6 20 -29 16 -5 -1 -6 3 -3 8 4 5 3 12 -2 15 -11 7 -35 -9 -38 -26 -1 -7 -6
-22 -10 -32 -6 -15 -4 -18 7 -12 8 4 5 0 -5 -8 -17 -14 -18 -16 -3 -16 9 0 17
-4 17 -10 0 -5 -7 -10 -15 -10 -9 0 -20 -10 -25 -22 -8 -21 -9 -20 -9 9 -1 35
-17 51 -33 35 -6 -6 -16 -8 -22 -6 -6 2 -27 -11 -46 -31 -19 -19 -39 -35 -46
-35 -7 0 -10 -8 -7 -20 3 -11 0 -33 -6 -50 -10 -30 -9 -32 26 -46 44 -19 54
-10 44 39 -8 34 -7 37 13 37 15 0 25 9 33 31 7 17 17 28 22 25 7 -5 7 -15 1
-32 -6 -14 -7 -36 -4 -48 4 -16 -4 -37 -26 -69 -33 -49 -47 -57 -56 -32 -4 8
-17 15 -29 15 -20 0 -25 -6 -29 -42 -18 -147 -24 -168 -49 -189 -15 -11 -18
-21 -12 -35 4 -10 8 -22 7 -25 -1 -3 10 -12 23 -19 14 -7 25 -17 25 -22 0 -10
121 -68 140 -68 6 0 8 5 5 10 -9 14 18 12 34 -2 11 -11 12 -8 7 15 -4 16 -2
27 4 27 6 0 8 11 4 26 -6 23 -4 25 12 20 18 -5 19 -2 14 59 -3 37 -1 78 6 97
6 18 9 39 6 47 -4 10 2 12 26 6 27 -6 32 -4 32 13 0 11 9 31 20 45 13 16 17
28 10 32 -7 4 -2 23 15 52 27 50 33 80 9 48 -13 -17 -16 -18 -24 -5 -13 20
-12 26 5 44 8 8 15 19 15 24 0 6 7 12 15 16 8 3 15 0 15 -7 0 -15 37 -40 44
-29 2 4 7 29 11 55 7 42 12 50 46 67 50 26 57 40 20 40 -25 0 -30 4 -33 28 -2
19 -9 28 -25 30 -11 2 -23 0 -26 -5z m-318 -465 c0 -31 -1 -31 -10 -10 -5 13
-7 28 -3 33 10 16 14 9 13 -23z m-49 -78 c8 -5 11 -12 8 -16 -4 -3 -14 1 -23
10 -18 17 -9 21 15 6z"/>
<path d="M4650 4167 c0 -9 -4 -17 -10 -17 -5 0 -10 -7 -10 -16 0 -14 -3 -14
-15 -4 -12 10 -15 10 -15 -2 0 -8 -13 -40 -29 -71 -28 -55 -29 -56 -46 -36
-17 18 -20 18 -36 3 -10 -9 -23 -13 -30 -8 -9 5 -10 2 -6 -8 4 -11 -3 -20 -24
-28 -37 -16 -51 -35 -18 -25 21 7 22 6 10 -9 -11 -13 -11 -16 -1 -16 22 0 3
-11 -27 -16 -24 -4 -28 -1 -29 21 -3 39 -11 41 -38 11 -23 -28 -24 -28 -56
-11 -38 20 -50 13 -26 -14 10 -11 15 -25 11 -31 -4 -7 -2 -23 5 -36 13 -23 14
-23 39 -6 14 10 40 24 56 31 17 7 38 18 49 23 10 5 39 12 65 14 l46 5 -36 -33
c-20 -18 -49 -41 -63 -51 -30 -21 -33 -39 -10 -61 8 -9 12 -16 8 -16 -3 0 -1
-7 6 -15 7 -8 17 -12 22 -9 5 4 7 -11 4 -36 -4 -37 -3 -40 12 -28 12 10 14 10
8 1 -4 -7 -2 -13 4 -13 20 0 22 29 2 57 -24 34 -25 64 -3 55 14 -5 14 -4 1 13
-14 17 -14 18 8 6 15 -8 21 -18 18 -29 -7 -21 33 -41 90 -46 31 -2 44 2 62 21
l23 25 -27 36 -28 36 -11 -33 c-10 -30 -12 -31 -24 -17 -13 15 -15 15 -31 1
-14 -12 -20 -13 -25 -4 -5 7 -1 16 9 21 9 5 16 18 16 28 0 14 7 20 23 20 13 0
28 5 34 11 15 15 33 3 33 -20 0 -10 7 -25 16 -32 14 -11 19 -9 35 11 10 14 19
29 19 34 0 16 53 71 69 71 36 0 4 97 -63 190 -20 27 -36 45 -36 40 0 -6 -7 -1
-15 9 -13 17 -15 18 -15 3z m77 -232 c6 -14 7 -23 2 -19 -13 8 -31 44 -22 44
4 0 13 -11 20 -25z m-70 -22 c-3 -10 -5 -4 -5 12 0 17 2 24 5 18 2 -7 2 -21 0
-30z"/>
<path d="M765 4120 c-7 -11 30 -32 39 -23 11 11 6 21 -14 26 -11 3 -22 1 -25
-3z"/>
<path d="M906 4031 c-21 -54 -20 -58 6 -35 19 17 21 17 15 1 -5 -15 -3 -16 12
-8 28 16 30 34 6 59 l-22 24 -17 -41z"/>
<path d="M2520 3960 c0 -5 5 -10 11 -10 5 0 7 5 4 10 -3 6 -8 10 -11 10 -2 0
-4 -4 -4 -10z"/>
<path d="M860 3898 c1 -7 7 -24 15 -38 l14 -25 1 38 c0 26 -4 37 -15 37 -8 0
-15 -6 -15 -12z"/>
<path d="M4320 3791 c0 -11 26 -22 34 -14 3 3 3 10 0 14 -7 12 -34 11 -34 0z"/>
<path d="M4430 3595 c0 -15 34 -69 37 -59 5 16 -15 64 -27 64 -5 0 -10 -2 -10
-5z"/>
<path d="M1436 3514 c-3 -9 -4 -20 0 -25 9 -15 -6 -10 -33 11 -31 24 -46 25
-63 5 -11 -13 -7 -21 21 -51 19 -20 44 -48 57 -61 12 -13 22 -28 22 -32 0 -5
14 -26 31 -47 17 -22 40 -57 52 -79 16 -30 22 -35 25 -22 2 10 -2 25 -9 33
-16 20 -5 29 14 10 13 -14 57 -12 57 2 0 4 -27 34 -61 68 -57 57 -61 65 -68
120 -7 60 -16 84 -31 84 -4 0 -11 -7 -14 -16z"/>
<path d="M1307 3423 c-13 -13 -7 -40 15 -59 l21 -19 -6 34 c-4 18 -7 37 -7 42
0 11 -14 12 -23 2z"/>
<path d="M3075 3331 c-7 -25 -13 -25 -39 -6 -17 13 -22 13 -37 -1 -17 -16 -17
-18 9 -53 15 -20 30 -37 35 -39 4 -2 7 -9 7 -16 0 -7 9 -23 20 -36 11 -13 20
-30 20 -39 1 -23 27 -55 35 -42 3 6 2 11 -3 11 -5 0 -9 11 -9 25 0 25 0 25 20
8 11 -10 17 -13 14 -6 -5 7 1 13 14 15 20 3 19 6 -20 48 -38 42 -41 49 -39 94
3 51 -15 75 -27 37z"/>
<path d="M1272 3314 c10 -10 20 -16 22 -13 3 3 -5 11 -17 18 -21 13 -21 12 -5
-5z"/>
<path d="M1062 3304 c-32 -22 -27 -34 16 -34 46 0 55 6 41 31 -12 23 -28 24
-57 3z"/>
<path d="M1315 3310 c-3 -6 1 -7 9 -4 18 7 21 14 7 14 -6 0 -13 -4 -16 -10z"/>
<path d="M1325 3260 c-15 -29 -15 -30 3 -19 10 6 19 20 19 30 2 27 -4 24 -22
-11z"/>
<path d="M1363 3263 c-35 -51 -38 -57 -20 -50 19 7 23 -8 6 -18 -5 -4 -18 0
-27 9 -16 14 -83 46 -97 46 -4 0 7 -12 24 -26 31 -26 40 -44 20 -44 -5 0 -8 4
-5 9 3 5 -1 12 -9 15 -13 5 -14 2 -5 -15 6 -11 18 -23 26 -26 7 -3 11 -9 8
-14 -3 -5 4 -9 15 -9 10 0 21 -3 24 -7 2 -5 2 -2 1 5 -2 7 6 22 17 33 20 20
21 20 42 2 11 -10 17 -12 13 -6 -5 9 -2 11 8 7 15 -6 21 -25 17 -48 -1 -5 4
-4 13 3 12 10 15 8 21 -7 3 -11 4 -24 3 -29 -2 -5 9 -21 25 -37 15 -15 25 -31
22 -37 -10 -15 47 -81 82 -96 18 -7 33 -20 33 -28 0 -8 4 -15 9 -15 5 0 12
-14 16 -30 4 -17 11 -28 16 -24 5 3 9 -2 9 -10 0 -9 4 -16 8 -16 8 0 42 -52
42 -64 0 -3 -11 -6 -24 -6 -13 0 -29 -7 -36 -15 -11 -13 -2 -25 55 -80 38 -36
73 -65 79 -65 5 0 25 -17 42 -37 l33 -38 25 24 c21 20 28 22 41 11 22 -18 18
-28 -8 -23 -14 3 -29 -2 -37 -12 -13 -15 -11 -20 13 -37 15 -11 34 -34 42 -52
23 -51 43 -72 57 -58 9 9 14 8 22 -4 10 -13 15 -13 39 6 15 12 27 17 27 11 0
-22 22 -10 76 41 53 50 54 52 33 63 l-22 12 23 16 23 16 -36 17 c-20 10 -33
22 -30 30 2 7 -6 15 -19 19 -42 13 -51 26 -32 46 16 18 16 19 -2 19 -10 0 -45
20 -76 45 -32 25 -60 45 -64 45 -10 0 -84 79 -84 90 0 6 -8 10 -17 8 -24 -4
-29 30 -6 47 17 13 16 16 -19 52 -21 21 -43 53 -49 71 -7 21 -16 31 -24 28
-11 -4 -95 91 -95 108 0 3 -11 17 -25 32 -22 24 -24 24 -20 5 3 -18 0 -20 -21
-17 -28 5 -30 12 21 -66 9 -16 14 -28 10 -28 -5 0 -2 -8 7 -17 20 -26 39 -73
28 -73 -5 0 -13 6 -17 14 -4 7 -35 42 -67 77 -32 35 -74 87 -91 114 -30 46
-53 71 -97 103 -13 11 -19 9 -35 -15z m294 -140 c14 -21 14 -21 -21 -5 -41 18
-46 29 -14 27 12 -1 28 -11 35 -22z m179 -463 c54 -38 56 -45 7 -22 -38 17
-63 36 -63 46 0 11 11 6 56 -24z m99 -90 c3 -5 1 -10 -4 -10 -6 0 -11 5 -11
10 0 6 2 10 4 10 3 0 8 -4 11 -10z"/>
<path d="M2934 3235 c-3 -8 -3 -19 1 -25 11 -18 25 -11 25 15 0 27 -17 34 -26
10z"/>
<path d="M1660 3210 c0 -5 4 -10 9 -10 6 0 13 5 16 10 3 6 -1 10 -9 10 -9 0
-16 -4 -16 -10z"/>
<path d="M1557 3194 c-11 -11 3 -24 18 -18 8 4 12 10 9 15 -6 11 -18 12 -27 3z"/>
<path d="M2935 3140 c-3 -5 -8 -19 -10 -31 -3 -16 0 -19 13 -14 9 3 13 3 9 -1
-9 -9 13 -35 24 -28 9 5 13 -10 10 -30 -1 -5 6 -3 15 5 16 13 17 12 11 -11 -4
-16 0 -31 11 -44 17 -19 16 -19 -13 0 -52 36 -53 36 -50 9 1 -14 -2 -25 -7
-25 -6 0 -7 -19 -3 -47 4 -27 7 -57 8 -68 1 -11 12 -28 24 -38 12 -10 25 -26
28 -37 8 -26 23 -25 59 3 34 27 30 38 -19 62 -30 14 -34 19 -24 31 10 12 9 21
-5 45 -25 43 -11 49 24 11 16 -18 36 -32 45 -32 9 0 15 -6 13 -12 -1 -7 3 -23
10 -35 7 -13 9 -23 5 -23 -4 0 -3 -4 3 -8 6 -4 15 -18 19 -31 7 -22 5 -23 -23
-19 -24 3 -32 0 -36 -16 -4 -15 11 -35 60 -83 l66 -63 30 16 c22 11 33 13 41
5 8 -8 4 -11 -13 -11 -14 0 -33 -7 -43 -15 -18 -13 -18 -14 2 -25 12 -6 21
-21 21 -33 0 -31 15 -51 34 -44 8 3 18 2 21 -3 4 -6 16 -4 29 5 12 8 25 13 28
9 7 -7 93 37 128 65 23 19 24 21 5 21 -19 1 -18 2 3 12 28 14 28 24 1 31 -12
3 -18 10 -14 16 3 6 -6 16 -22 22 -26 10 -27 12 -11 23 16 12 16 14 -6 24 -27
12 -62 40 -112 88 -18 18 -38 34 -45 36 -8 3 -5 11 10 25 l23 22 -21 22 c-12
13 -22 26 -22 31 -1 4 -3 13 -4 18 -1 6 -3 14 -4 20 0 5 -7 7 -14 4 -11 -4
-52 59 -44 69 3 5 -31 37 -39 37 -5 0 -3 -5 4 -12 7 -7 12 -18 12 -25 0 -19
-37 -16 -49 5 -6 9 -11 13 -11 9 0 -4 7 -19 16 -32 9 -13 13 -28 10 -33 -3 -6
0 -15 8 -21 8 -7 12 -21 8 -33 -5 -20 -5 -20 -24 3 -19 24 -69 99 -102 152
-11 18 -23 26 -32 23 -9 -3 -12 -1 -9 4 12 19 -19 10 -43 -12 l-25 -23 12 23
c11 22 8 32 -4 12z m286 -416 c17 -8 29 -18 26 -20 -6 -6 -67 23 -67 31 0 8
10 6 41 -11z"/>
<path d="M2705 3120 c-27 -18 -28 -20 -8 -20 12 0 24 6 26 13 4 9 6 9 6 0 1
-17 31 -4 31 13 0 20 -20 17 -55 -6z"/>
<path d="M3205 3130 c-3 -5 -2 -10 4 -10 5 0 13 5 16 10 3 6 2 10 -4 10 -5 0
-13 -4 -16 -10z"/>
<path d="M600 3101 c0 -14 -4 -20 -11 -15 -8 4 -9 0 -4 -15 7 -22 -4 -28 -22
-10 -7 7 -12 -5 -17 -42 -4 -29 -15 -64 -25 -78 -10 -14 -16 -33 -13 -41 4
-12 0 -11 -21 3 -25 16 -26 16 -45 -8 -11 -13 -22 -21 -26 -18 -3 3 -6 -3 -6
-13 0 -11 -14 -30 -31 -43 -17 -13 -28 -25 -25 -28 3 -3 12 -1 20 6 11 9 15 7
19 -8 3 -11 -1 -25 -9 -32 -8 -6 -14 -8 -14 -3 0 4 -5 3 -12 -4 -16 -16 -31
-15 -26 0 5 13 -15 38 -29 38 -4 0 -15 -15 -24 -33 -14 -28 -22 -33 -65 -37
l-49 -6 28 -13 c18 -9 27 -22 27 -37 0 -13 9 -28 19 -33 15 -9 22 -6 35 14 19
29 64 75 74 75 4 0 22 14 41 30 18 17 40 30 47 30 8 0 14 4 14 9 0 5 9 7 20 4
19 -5 18 -8 -12 -47 -18 -22 -43 -51 -55 -63 -26 -25 -30 -61 -8 -69 8 -4 13
-10 10 -14 -9 -14 15 -23 29 -11 17 14 26 4 26 -28 0 -14 5 -33 10 -41 8 -13
10 -12 10 3 0 9 4 17 10 17 5 0 6 -8 3 -17 -6 -16 -4 -16 9 -5 15 12 22 53 8
49 -10 -3 -46 28 -53 45 -3 10 -1 20 5 24 7 5 8 2 3 -6 -6 -9 -4 -11 5 -5 10
6 9 11 -5 22 -20 14 -13 16 21 7 16 -4 20 -11 16 -27 -4 -17 -2 -19 13 -13 10
4 21 3 24 -3 10 -15 110 11 117 31 3 10 12 24 19 32 12 12 10 18 -21 41 -40
30 -46 28 -48 -15 -1 -33 -6 -36 -25 -17 -10 10 -14 9 -22 -5 -6 -10 -17 -18
-26 -18 -14 0 -14 2 1 24 9 14 14 31 11 38 -4 12 53 58 72 58 4 0 17 -12 28
-27 27 -33 39 -26 60 36 9 27 23 55 31 61 7 7 14 19 14 26 0 8 9 14 19 14 23
0 36 16 21 25 -5 3 -10 13 -10 21 0 18 -66 108 -109 148 -18 17 -31 24 -31 16
0 -9 -6 -8 -20 5 -19 18 -20 17 -20 -4z m108 -211 c7 -11 11 -20 9 -20 -2 0
-12 9 -22 20 -10 11 -14 20 -9 20 5 0 15 -9 22 -20z m-58 -35 c0 -14 -4 -25
-10 -25 -11 0 -14 33 -3 43 11 11 13 8 13 -18z"/>
<path d="M1398 3099 c7 -9 10 -24 6 -33 -3 -9 -1 -16 5 -16 6 0 11 -4 11 -10
0 -5 -7 -6 -17 -3 -10 4 -14 2 -10 -4 5 -9 27 -57 32 -73 1 -3 11 -25 22 -49
12 -24 19 -50 16 -58 -4 -9 0 -11 13 -7 11 4 16 4 12 0 -3 -4 14 -26 38 -48
24 -22 44 -47 44 -54 0 -22 21 -17 51 12 27 26 29 54 4 54 -6 0 -20 9 -29 19
-10 11 -31 25 -47 31 -28 12 -29 14 -13 32 17 17 16 20 -7 46 -48 52 -52 61
-40 76 9 11 3 20 -31 47 -70 53 -75 57 -60 38z"/>
<path d="M2840 3100 c0 -4 7 -10 15 -14 8 -3 15 -11 15 -17 0 -8 -5 -7 -17 2
-15 13 -15 12 -4 -8 15 -29 51 -50 51 -29 0 7 7 16 15 20 20 7 19 22 -2 31
-40 16 -73 23 -73 15z"/>
<path d="M4440 2945 c7 -8 16 -12 21 -9 5 3 8 0 7 -7 -2 -7 5 -15 15 -17 31
-6 18 26 -14 37 -41 14 -44 14 -29 -4z"/>
<path d="M4520 2818 c0 -16 -4 -28 -10 -28 -5 0 -7 8 -4 18 3 9 -1 6 -9 -8
-10 -15 -12 -29 -6 -36 5 -6 7 -13 5 -15 -2 -2 11 -5 29 -6 32 -3 33 -2 25 30
-4 19 -12 42 -18 53 -10 17 -11 17 -12 -8z"/>
<path d="M4681 2830 c-7 -4 -11 -15 -9 -25 3 -16 5 -16 27 2 19 16 21 21 9 25
-8 4 -20 3 -27 -2z"/>
<path d="M4761 2801 c-7 -20 -12 -44 -12 -53 0 -9 -7 -22 -15 -29 -8 -6 -14
-17 -14 -25 0 -7 -11 -29 -24 -49 -24 -34 -26 -72 -4 -59 7 4 6 9 -1 13 -7 5
-3 13 10 25 12 9 22 16 23 14 1 -2 7 -16 14 -31 16 -36 29 -27 37 26 10 67 14
74 45 87 16 6 36 20 46 31 16 18 16 19 -14 19 -26 0 -31 4 -34 26 -2 16 -11
30 -23 34 -18 7 -23 2 -34 -29z"/>
<path d="M4601 2814 c0 -11 3 -14 6 -6 3 7 2 16 -1 19 -3 4 -6 -2 -5 -13z"/>
<path d="M4573 2755 c0 -11 -4 -29 -8 -39 -6 -14 -5 -17 3 -12 7 4 12 3 12 -3
0 -5 -5 -13 -11 -17 -8 -4 -7 -9 2 -15 11 -7 9 -10 -8 -15 -12 -3 -27 -18 -32
-33 -8 -19 -10 -21 -10 -6 3 57 -1 71 -21 71 -13 0 -19 -5 -15 -14 3 -8 0 -12
-7 -9 -19 6 -50 -12 -42 -25 4 -7 3 -8 -4 -4 -6 3 -16 -2 -21 -13 -6 -11 -19
-22 -30 -26 -11 -3 -18 -14 -17 -28 1 -12 -4 -34 -11 -49 -7 -15 -13 -29 -13
-32 0 -9 71 -36 80 -31 5 3 7 26 4 50 -3 42 -2 45 20 45 18 0 25 7 30 30 3 17
12 30 21 30 11 0 13 -5 5 -26 -6 -14 -10 -40 -10 -57 0 -19 -14 -54 -34 -84
-33 -52 -33 -52 -51 -33 -22 24 -51 26 -59 3 -4 -9 -9 -44 -13 -77 -3 -34 -10
-66 -15 -73 -7 -8 1 -17 24 -29 42 -21 41 -21 33 -34 -4 -7 -15 -2 -30 15 -30
31 -45 32 -45 3 0 -13 -12 -34 -25 -47 -23 -22 -24 -25 -10 -41 8 -9 12 -19 9
-23 -4 -3 5 -12 20 -18 14 -7 26 -18 26 -24 0 -12 76 -57 118 -70 16 -5 22 -2
22 10 0 13 4 14 20 5 18 -9 20 -8 20 15 0 17 4 24 11 19 8 -4 9 3 4 26 -6 29
-5 32 11 28 17 -4 19 3 22 75 1 45 9 91 18 108 8 17 10 29 4 29 -5 0 -10 5
-10 11 0 7 12 9 34 5 31 -6 34 -4 39 23 3 16 13 36 22 45 10 9 14 23 11 32 -3
8 3 32 13 52 10 20 21 48 25 62 6 22 5 22 -10 -5 -16 -27 -18 -28 -25 -10 -11
28 -11 37 0 30 5 -3 13 0 17 6 4 7 3 9 -4 5 -5 -3 -12 0 -14 6 -3 8 -10 3 -18
-12 -18 -35 -85 -101 -75 -75 4 11 11 34 15 50 15 55 28 90 44 120 9 17 16 45
16 63 0 28 -3 32 -27 33 -16 0 -22 3 -15 6 21 8 13 23 -11 21 -16 -1 -23 -9
-24 -23z m-152 -480 c-7 -14 -19 37 -12 55 3 10 8 4 11 -15 4 -16 4 -34 1 -40z"/>
<path d="M1645 2740 c-3 -5 -1 -10 4 -10 6 0 11 5 11 10 0 6 -2 10 -4 10 -3 0
-8 -4 -11 -10z"/>
<path d="M313 2598 c2 -7 10 -13 17 -13 7 0 15 6 18 13 2 7 -5 12 -18 12 -13
0 -20 -5 -17 -12z"/>
<path d="M4750 2541 c0 -5 5 -13 10 -16 6 -3 10 -2 10 4 0 5 -4 13 -10 16 -5
3 -10 2 -10 -4z"/>
<path d="M482 2434 c2 -9 14 -24 28 -33 l25 -16 -23 33 c-26 35 -35 40 -30 16z"/>
<path d="M2666 2135 c4 -8 12 -15 20 -15 8 0 13 -4 12 -9 -3 -9 2 -11 23 -11
17 0 0 19 -31 35 -26 14 -29 14 -24 0z"/>
<path d="M1343 2014 c-3 -11 -13 -23 -20 -27 -7 -5 -11 -12 -8 -17 9 -15 -15
-22 -30 -10 -12 10 -15 9 -15 -9 0 -28 -41 -109 -72 -142 -13 -14 -22 -31 -20
-37 5 -17 -8 -15 -29 4 -17 15 -20 15 -49 -10 -18 -14 -38 -26 -46 -26 -8 0
-14 -8 -14 -18 0 -12 -16 -27 -45 -41 -24 -12 -47 -27 -51 -33 -4 -6 2 -5 16
2 18 10 22 9 27 -8 5 -22 27 -23 77 -3 16 6 31 10 33 7 6 -6 -69 -73 -131
-117 -28 -20 -50 -43 -50 -52 1 -9 -1 -16 -5 -15 -22 2 -21 -6 5 -33 28 -31
28 -31 4 -20 -23 11 -23 11 -7 -3 19 -15 51 -11 42 4 -3 5 4 11 15 15 11 3 20
11 20 16 0 6 -5 7 -12 3 -7 -5 -8 -3 -4 5 5 7 14 10 22 7 8 -3 14 -1 14 4 0 6
-5 10 -11 10 -5 0 -7 5 -4 10 4 7 12 7 23 1 13 -7 23 -4 41 12 l24 22 -25 -40
c-44 -72 -44 -72 -25 -57 11 9 21 11 33 4 10 -6 29 -6 46 -2 15 5 28 6 28 2 0
-3 5 -1 12 6 7 7 28 12 47 12 19 0 32 3 28 6 -7 8 47 64 62 64 17 0 13 10 -15
47 -24 31 -48 40 -50 17 0 -8 -24 -63 -31 -73 -1 -2 -9 2 -17 9 -13 10 -21 8
-46 -10 -40 -28 -54 -16 -17 14 16 13 29 31 31 41 3 19 119 88 130 78 3 -4 6
-16 6 -29 0 -37 26 -36 57 2 15 19 33 41 38 47 6 7 16 24 24 40 8 15 18 27 23
27 14 0 9 16 -12 40 -21 24 -26 40 -12 40 4 0 13 -13 20 -30 16 -35 27 -38 42
-10 6 11 17 20 24 20 37 0 55 70 27 103 -8 10 -16 25 -17 34 -2 9 -26 39 -53
67 -39 39 -51 46 -51 32 0 -18 -1 -18 -20 -1 -19 17 -20 17 -27 -1z m-23 -299
c-6 -15 -13 -26 -16 -23 -2 3 0 18 6 33 6 15 13 26 16 23 2 -3 0 -18 -6 -33z"/>
<path d="M2737 2000 c-3 -11 -10 -20 -16 -20 -6 0 -8 8 -4 18 8 22 -1 14 -16
-15 -10 -19 -7 -23 21 -37 44 -22 46 -21 38 24 -9 49 -16 58 -23 30z"/>
<path d="M2885 1989 c-4 -6 -5 -13 -2 -16 8 -7 47 7 47 18 0 13 -37 11 -45 -2z"/>
<path d="M2980 1984 c0 -23 -59 -134 -88 -166 -13 -14 -21 -31 -18 -37 4 -6 3
-11 -3 -11 -5 0 -18 -13 -27 -29 -10 -17 -21 -28 -26 -25 -4 3 -8 -1 -8 -9 0
-14 -28 -32 -36 -24 -5 5 38 113 64 162 26 47 28 81 6 89 -12 5 -14 9 -5 20 9
11 6 13 -13 11 -32 -4 -48 -14 -41 -26 4 -5 2 -9 -2 -9 -5 0 -14 -13 -20 -30
-9 -25 -9 -32 5 -40 14 -9 13 -10 -7 -8 -19 3 -24 -2 -27 -26 -5 -50 -14 -41
-10 11 3 48 3 50 -21 47 -28 -3 -73 -30 -91 -56 -7 -10 -23 -18 -34 -18 -12 0
-19 -3 -16 -6 8 -8 -12 -78 -25 -86 -8 -5 60 -48 78 -48 3 0 5 22 5 49 0 44 2
49 19 44 14 -4 24 3 36 26 9 18 20 29 25 26 6 -4 4 -17 -4 -33 -8 -15 -12 -39
-10 -52 3 -18 -7 -37 -36 -70 l-40 -45 -15 23 c-32 44 -55 22 -75 -73 -5 -22
-12 -50 -15 -62 -5 -16 -3 -23 6 -23 21 -1 52 -27 45 -39 -4 -5 -17 1 -31 15
-26 26 -47 32 -44 12 3 -25 -1 -38 -12 -38 -7 0 -17 -7 -24 -17 -9 -13 -9 -22
3 -45 8 -16 20 -32 28 -35 8 -3 14 -10 14 -17 0 -11 84 -67 123 -82 14 -5 16
-2 10 12 -7 18 -6 18 20 1 27 -17 27 -17 27 8 0 14 5 25 10 25 6 0 8 11 4 27
-6 23 -4 25 13 21 19 -5 21 0 26 51 6 64 12 92 25 118 5 10 7 24 4 32 -3 10 3
12 24 7 26 -6 31 -2 48 28 10 19 25 37 33 41 11 4 12 9 4 18 -8 10 -4 22 13
48 13 19 26 45 30 59 6 25 6 25 -5 3 -13 -25 -35 -32 -25 -8 3 8 0 15 -6 15
-6 0 -3 9 6 19 10 11 16 23 13 28 -3 5 6 14 20 20 22 11 25 10 20 -6 -3 -15
20 -41 36 -41 2 0 10 24 17 54 12 52 15 55 62 75 51 21 57 41 12 41 -19 0 -24
5 -24 25 0 14 -8 29 -19 35 -26 14 -31 13 -31 -6z m-371 -461 c-1 -38 -1 -38
-9 -9 -8 27 -6 46 6 46 2 0 4 -17 3 -37z"/>
<path d="M2945 1710 c3 -5 11 -10 16 -10 6 0 7 5 4 10 -3 6 -11 10 -16 10 -6
0 -7 -4 -4 -10z"/>
<path d="M906 1685 c4 -8 8 -15 10 -15 2 0 4 7 4 15 0 8 -4 15 -10 15 -5 0 -7
-7 -4 -15z"/>
<path d="M835 1610 c-38 -39 -40 -40 -95 -33 l-55 6 23 -26 c20 -21 22 -29 13
-46 -9 -15 -8 -26 1 -41 15 -23 24 -25 35 -7 12 19 132 97 149 97 8 0 17 7 20
15 4 8 10 12 15 9 5 -3 9 2 9 10 0 13 -3 13 -27 1 -30 -16 -42 -12 -25 7 7 9
7 18 -2 31 -7 9 -15 17 -17 17 -2 -1 -22 -18 -44 -40z"/>
<path d="M3900 1585 c-8 -10 -17 -12 -30 -5 -22 12 -66 -16 -52 -33 22 -27 52
-89 52 -107 0 -11 6 -20 14 -20 9 0 12 7 9 21 -4 16 -2 20 8 17 8 -3 22 -1 33
4 17 9 16 12 -9 38 -26 27 -26 29 -11 58 9 17 16 33 16 37 0 10 -18 5 -30 -10z"/>
<path d="M3757 1513 c-4 -3 -7 -13 -7 -21 0 -12 3 -12 15 -2 8 7 15 16 15 21
0 11 -14 12 -23 2z"/>
<path d="M3768 1444 c-4 -3 -14 -7 -23 -8 -29 -4 -35 -28 -13 -48 12 -10 24
-18 27 -18 3 0 6 -11 6 -24 0 -23 -1 -24 -30 -9 -16 9 -27 12 -22 8 4 -5 0
-16 -9 -26 -9 -10 -16 -34 -16 -53 0 -20 -4 -39 -10 -42 -5 -3 0 -13 11 -21
12 -8 21 -21 21 -29 0 -12 8 -11 40 6 46 24 50 37 15 46 -28 7 -31 14 -13 32
8 8 8 15 -2 27 -18 21 -4 32 17 13 10 -8 26 -18 36 -21 10 -4 17 -17 17 -31 0
-13 3 -31 6 -40 4 -11 0 -16 -13 -16 -11 0 -28 -7 -39 -15 -18 -15 -18 -16 11
-40 65 -54 85 -78 85 -105 0 -17 5 -20 33 -16 78 11 212 69 201 88 -3 4 2 11
11 14 13 5 11 10 -11 29 -19 16 -22 24 -13 28 10 3 8 7 -6 12 -11 5 -41 25
-67 46 l-48 37 23 15 c18 12 20 18 10 28 -7 7 -13 21 -13 32 0 10 -4 15 -10
12 -5 -3 -18 12 -27 35 -20 45 -21 45 -46 26 -13 -10 -17 -23 -14 -43 2 -15 1
-36 -2 -46 -6 -15 -12 -11 -39 27 -18 24 -32 48 -32 54 0 9 -32 42 -42 42 -2
0 -7 -3 -10 -6z m166 -39 c4 -10 -1 -15 -16 -15 -17 0 -18 2 -8 15 7 8 14 15
15 15 2 0 5 -7 9 -15z m-44 -245 c12 -8 11 -10 -7 -10 -13 0 -23 5 -23 10 0
13 11 13 30 0z m30 -60 c0 -5 -10 -10 -22 -10 -19 0 -20 2 -8 10 19 13 30 13
30 0z"/>
<path d="M794 1429 c-2 -4 3 -12 11 -19 12 -10 18 -10 30 0 8 7 12 16 10 20
-6 10 -45 9 -51 -1z"/>
<path d="M3528 1404 c-37 -20 -35 -25 4 -13 18 5 34 9 35 9 2 0 3 5 3 10 0 13
-10 12 -42 -6z"/>
<path d="M961 1378 c-5 -13 -12 -34 -16 -48 l-7 -25 22 23 c12 13 25 21 28 17
4 -3 0 -10 -8 -15 -8 -5 -12 -11 -9 -15 3 -3 16 4 29 15 13 11 20 20 15 20 -4
0 -2 7 5 15 11 13 10 14 -2 10 -9 -4 -18 1 -21 9 -9 23 -26 20 -36 -6z"/>
<path d="M3648 1393 c6 -2 12 -9 12 -14 0 -4 -7 -6 -15 -3 -11 5 -13 2 -9 -10
8 -20 18 -20 50 1 29 18 17 33 -26 32 -14 0 -19 -3 -12 -6z"/>
<path d="M900 1211 c0 -10 9 -29 20 -42 l19 -24 1 27 c0 14 -3 33 -6 42 -9 22
-34 20 -34 -3z"/>
<path d="M4572 835 c28 -26 52 -33 46 -14 -2 6 -19 17 -38 25 l-35 15 27 -26z"/>
<path d="M1775 765 c-1 -70 6 -93 18 -62 4 8 8 8 14 2 7 -9 53 -19 53 -12 0 1
-5 18 -10 37 -10 33 -8 37 22 63 l33 28 -33 -4 c-19 -2 -37 2 -43 10 -6 7 -21
13 -33 13 -19 0 -21 -5 -21 -75z"/>
<path d="M1435 820 c28 -12 55 -12 55 0 0 6 -17 10 -37 9 -31 0 -34 -2 -18 -9z"/>
<path d="M1686 804 c-4 -11 -1 -14 11 -12 9 2 18 9 21 16 6 18 -25 15 -32 -4z"/>
<path d="M359 786 c-10 -20 -15 -23 -34 -16 -18 7 -27 4 -41 -11 -12 -13 -14
-23 -8 -27 25 -17 60 -49 72 -67 7 -11 22 -35 33 -52 12 -18 28 -33 36 -33 8
0 11 5 8 10 -4 6 -9 8 -13 6 -4 -2 -8 7 -8 20 -2 20 1 23 12 13 10 -8 14 -8
14 0 0 6 7 11 15 11 22 0 18 16 -9 33 -47 31 -56 46 -50 86 6 46 -11 63 -27
27z"/>
<path d="M1539 763 c6 -13 7 -23 2 -23 -5 0 -12 6 -14 13 -3 6 -6 2 -6 -10 -1
-13 4 -23 9 -24 69 -7 77 4 29 41 -32 24 -32 24 -20 3z"/>
<path d="M1625 758 c-11 -6 -21 -12 -23 -13 -1 -1 2 -15 8 -31 9 -23 13 -25
20 -14 7 10 10 11 10 3 0 -20 -4 -28 -12 -25 -5 1 -8 -3 -8 -9 0 -8 -4 -8 -14
0 -15 13 -49 4 -40 -10 3 -5 -1 -6 -9 -4 -8 4 -19 -6 -27 -22 -8 -15 -20 -35
-27 -44 -11 -13 -11 -18 2 -29 8 -7 15 -21 15 -31 0 -15 7 -19 33 -19 53 0 62
13 31 43 -26 26 -26 27 -5 27 17 0 21 6 21 30 0 19 5 30 14 30 9 0 12 -7 9
-21 -4 -14 0 -25 11 -31 14 -8 16 -18 10 -56 -4 -26 -8 -48 -9 -50 -1 -1 -14
2 -28 7 -19 8 -28 6 -38 -5 -9 -11 -6 -22 15 -54 14 -22 26 -47 26 -56 0 -13
8 -15 40 -10 23 3 40 1 40 -4 0 -6 -19 -10 -42 -10 -32 0 -39 -3 -31 -11 7 -7
9 -25 6 -42 -5 -25 -3 -29 10 -24 9 3 19 2 22 -4 4 -6 39 -8 83 -5 89 5 134
14 126 27 -3 5 4 9 14 9 18 0 19 3 9 25 -7 14 -15 25 -19 25 -5 0 -8 5 -8 10
0 6 6 10 13 10 8 0 -3 19 -25 42 -21 23 -38 50 -38 60 0 10 -5 18 -11 18 -5 0
-7 5 -4 10 3 6 14 10 24 10 13 0 17 8 17 35 -1 19 -5 35 -9 35 -4 0 -7 18 -5
40 1 22 -1 43 -5 46 -4 4 -7 -2 -7 -14 0 -26 -7 -27 -32 -5 -17 15 -18 15 -18
-5 0 -12 -5 -22 -10 -22 -5 0 -9 -3 -9 -7 3 -18 -2 -33 -9 -33 -10 0 -34 98
-27 110 11 18 -18 60 -42 60 -14 0 -21 4 -18 10 8 12 5 12 -20 -2z m51 -329
c19 -22 19 -22 -3 -8 -13 8 -23 17 -23 21 0 12 6 9 26 -13z"/>
<path d="M4643 735 c4 -8 2 -17 -3 -20 -6 -4 -10 2 -10 12 -1 17 -1 17 -11 1
-7 -12 -7 -24 0 -35 6 -10 11 -14 11 -10 0 4 9 3 21 -3 29 -16 33 -8 15 34
-14 34 -35 53 -23 21z"/>
<path d="M4790 715 c-13 -16 -3 -20 24 -9 9 3 13 10 10 15 -8 13 -20 11 -34
-6z"/>
<path d="M4880 706 c0 -15 -37 -90 -62 -125 -17 -23 -16 -41 1 -41 5 0 11 9
14 20 3 11 11 20 17 20 7 0 10 -6 7 -13 -3 -7 4 -19 14 -25 22 -14 26 -9 32
43 3 25 10 32 45 43 44 15 48 32 7 32 -16 0 -25 6 -27 21 -3 24 -48 47 -48 25z"/>
<path d="M4710 685 c0 -8 -4 -15 -10 -15 -5 0 -10 -7 -10 -16 0 -9 5 -12 13
-8 7 5 6 0 -3 -11 -14 -17 -13 -18 3 -12 11 4 16 3 12 -3 -3 -6 -15 -10 -26
-10 -13 0 -19 -7 -19 -22 0 -29 -8 -19 -14 17 -2 17 -5 31 -5 33 -1 1 -11 -2
-22 -9 -16 -8 -20 -8 -14 1 11 18 -47 -15 -69 -39 -10 -11 -22 -18 -27 -15 -4
2 -6 -5 -4 -16 2 -12 0 -32 -5 -44 -7 -20 -4 -25 16 -35 22 -10 64 -15 64 -8
0 1 -4 17 -10 36 -8 30 -8 33 11 28 15 -4 23 1 29 19 5 13 13 24 18 24 14 0 6
-89 -10 -107 -8 -10 -18 -26 -21 -35 -8 -24 -23 -23 -40 2 -16 23 -47 18 -48
-9 -3 -110 -10 -155 -24 -171 -14 -15 -14 -21 -3 -39 7 -11 25 -26 40 -32 16
-6 28 -14 28 -18 0 -12 103 -45 142 -46 32 0 37 2 32 17 -3 11 0 18 7 18 10 0
10 3 1 12 -19 19 -14 30 9 23 18 -6 19 -4 11 12 -14 27 -22 107 -12 123 5 9 4
20 -3 28 -10 12 -7 13 20 8 29 -7 32 -5 38 23 4 19 11 28 17 25 7 -5 9 1 5 16
-3 13 1 36 9 51 19 38 18 45 -5 25 -17 -15 -19 -15 -25 -1 -9 24 -8 27 7 19 9
-5 9 -4 1 6 -9 9 -20 4 -47 -26 -20 -22 -38 -36 -41 -33 -7 7 22 110 35 123 5
6 9 25 9 42 0 24 -5 34 -20 39 -11 3 -20 11 -20 16 0 5 -4 9 -10 9 -5 0 -10
-7 -10 -15z m-100 -343 c0 -7 -4 -10 -10 -7 -5 3 -10 16 -10 28 0 18 2 19 10
7 5 -8 10 -21 10 -28z m-40 -52 c8 -5 12 -11 10 -14 -3 -2 -14 2 -24 10 -22
15 -10 19 14 4z"/>
<path d="M234 675 c-7 -17 4 -37 17 -30 12 8 12 45 -1 45 -6 0 -13 -7 -16 -15z"/>
<path d="M490 629 c0 -5 5 -7 10 -4 6 3 10 8 10 11 0 2 -4 4 -10 4 -5 0 -10
-5 -10 -11z"/>
<path d="M261 587 c-13 -12 -20 -15 -16 -7 6 12 5 13 -5 3 -10 -9 -10 -15 -2
-26 17 -20 5 -27 -47 -28 -25 -1 -38 -3 -28 -6 9 -2 17 -8 17 -13 0 -5 -7 -7
-15 -4 -11 5 -13 2 -9 -10 3 -9 9 -16 13 -17 3 0 14 -2 24 -4 9 -2 15 0 12 4
-2 5 7 18 21 30 20 17 29 20 40 10 7 -6 21 -9 29 -5 16 6 20 -10 9 -38 -4 -11
-11 -13 -23 -7 -23 13 -27 -9 -18 -131 1 -16 8 -28 15 -28 7 0 24 -12 39 -26
l25 -25 29 27 c16 15 29 30 29 34 0 3 -16 12 -35 19 -36 13 -44 25 -24 36 7 5
2 16 -12 31 -29 31 -16 44 15 15 14 -13 29 -20 34 -17 10 6 72 -82 72 -102 0
-10 -26 -17 -51 -14 -3 1 -6 -8 -5 -18 1 -18 59 -70 79 -70 17 0 87 -65 87
-81 0 -21 26 -44 34 -30 3 5 14 7 24 4 10 -2 24 3 31 11 8 9 21 16 30 16 26 0
125 91 110 101 -10 6 -10 9 4 15 24 9 21 24 -4 24 -11 0 -18 4 -15 9 3 5 -6
12 -21 15 -19 5 -23 10 -14 19 8 8 -3 18 -46 39 -32 15 -72 36 -90 46 -30 18
-31 20 -17 40 13 19 13 23 -6 42 -11 11 -20 27 -20 35 0 8 -8 15 -19 15 -10 0
-30 17 -45 40 -14 22 -32 40 -38 40 -9 0 -9 -3 0 -12 19 -19 14 -31 -13 -26
-26 5 -32 -1 -15 -18 6 -6 12 -19 15 -30 2 -10 7 -30 10 -44 5 -19 -10 -8 -64
48 -39 39 -77 73 -84 75 -6 1 -14 5 -17 9 -3 4 -16 -2 -29 -15z m74 -135 c-3
-3 -11 0 -18 7 -9 10 -8 11 6 5 10 -3 15 -9 12 -12z m200 -182 c18 -8 17 -9
-7 -9 -15 -1 -30 4 -33 9 -7 12 12 12 40 0z m30 -86 c-38 -19 -44 -17 -16 6
12 11 27 17 33 14 5 -3 -3 -12 -17 -20z"/>
<path d="M49 533 c-1 -4 -1 -11 -1 -14 1 -4 -6 -6 -15 -5 -9 0 -18 -5 -20 -12
-4 -10 1 -10 27 0 32 13 41 29 21 36 -6 2 -12 0 -12 -5z"/>
<path d="M4887 499 c7 -7 15 -10 18 -7 3 3 -2 9 -12 12 -14 6 -15 5 -6 -5z"/>
<path d="M2823 472 c3 -25 -1 -36 -15 -43 -10 -5 -18 -20 -18 -33 0 -20 5 -24
38 -25 63 -2 90 -6 98 -13 10 -11 44 -10 44 1 0 5 -9 11 -20 14 -18 5 -19 7
-5 33 19 37 12 44 -32 32 -32 -9 -39 -8 -50 8 -7 11 -19 28 -28 39 -16 19 -16
19 -12 -13z"/>
<path d="M3363 455 c-13 -5 -23 -13 -23 -17 0 -17 -20 -7 -20 10 -1 15 -2 15
-18 -3 -26 -31 -79 -66 -102 -68 -11 -1 -20 -5 -20 -10 0 -4 -4 -5 -10 -2 -5
3 -10 15 -10 26 0 16 -5 18 -25 13 -14 -3 -31 -1 -39 5 -10 9 -15 8 -20 -4 -4
-11 -13 -14 -31 -9 -19 5 -25 2 -25 -9 0 -9 -10 -23 -22 -31 l-22 -16 21 0
c12 0 25 -5 28 -11 4 -6 12 -8 19 -6 6 3 17 -1 23 -9 10 -10 4 -14 -32 -20
-25 -3 -62 -4 -82 -2 -45 6 -83 -9 -83 -31 0 -9 -3 -27 -7 -40 -4 -17 -3 -22
5 -17 7 4 12 3 12 -3 0 -5 11 -6 28 -2 16 5 26 14 26 24 -1 10 2 17 7 17 9 0
13 -15 10 -33 -1 -5 9 -6 21 -2 22 7 22 6 -2 -11 -14 -9 -27 -19 -30 -22 -3
-2 3 -10 13 -17 10 -7 17 -17 16 -22 -1 -4 17 -18 39 -31 23 -13 42 -28 42
-33 0 -5 11 -2 25 7 14 9 34 14 45 11 18 -5 20 0 20 37 0 54 -6 60 -40 36 -34
-24 -40 -25 -40 -5 0 10 -10 15 -30 15 -16 0 -30 5 -30 10 0 9 8 12 26 9 3 0
16 6 29 15 17 11 37 14 74 9 54 -6 54 -6 34 -60 -10 -25 28 -25 81 1 29 14 62
26 74 26 11 0 24 4 27 10 3 5 18 7 33 4 23 -4 29 -1 39 23 14 35 11 181 -5
208 -6 11 -12 16 -13 10 0 -5 -4 -1 -7 10 -6 17 -11 18 -29 10z m-115 -215
c-12 -19 -28 -27 -28 -14 0 6 30 33 38 34 1 0 -3 -9 -10 -20z m76 -7 c-10 -40
-14 -41 -14 -5 0 18 5 32 10 32 6 0 8 -11 4 -27z"/>
<path d="M2990 400 c-13 -8 -12 -10 3 -10 9 0 17 5 17 10 0 12 -1 12 -20 0z"/>
<path d="M2800 308 c0 -18 18 -34 28 -24 3 4 -2 14 -11 23 -16 16 -17 16 -17
1z"/>
<path d="M2860 163 c-33 -30 -34 -32 -10 -27 14 2 19 2 13 -2 -19 -9 -15 -24
6 -24 26 0 38 20 32 55 l-6 29 -35 -31z"/>
<path d="M2756 83 c-11 -11 -7 -65 5 -58 6 4 8 14 5 22 -3 8 -1 11 4 8 6 -3
10 1 10 9 0 17 -14 29 -24 19z"/>
</g>
</svg>
