<?xml version="1.0" standalone="no"?>
<!DOCTYPE svg PUBLIC "-//W3C//DTD SVG 20010904//EN"
 "http://www.w3.org/TR/2001/REC-SVG-20010904/DTD/svg10.dtd">
<svg version="1.0" xmlns="http://www.w3.org/2000/svg"
 width="431.000000pt" height="1000.000000pt" viewBox="0 0 431.000000 1000.000000"
 preserveAspectRatio="xMidYMid meet">

<g transform="translate(0.000000,1000.000000) scale(0.100000,-0.100000)"
fill="#1E4616" stroke="none">
<path d="M3232 9988 c-6 -6 -31 -14 -54 -17 -39 -5 -45 -11 -69 -55 -37 -68
-43 -115 -23 -184 20 -68 39 -107 70 -145 13 -16 24 -38 24 -49 0 -12 11 -40
24 -62 13 -23 31 -64 40 -93 9 -28 28 -63 41 -77 13 -14 26 -40 30 -58 4 -18
16 -43 27 -55 11 -12 35 -50 54 -85 18 -35 45 -85 60 -113 15 -27 48 -82 74
-120 26 -39 66 -106 88 -150 22 -44 63 -109 91 -144 29 -34 58 -78 65 -96 23
-53 184 -293 252 -375 87 -105 205 -218 211 -202 7 18 30 15 42 -5 10 -17 10
-17 11 0 0 17 -11 54 -63 212 -16 51 -68 168 -172 390 -42 89 -111 259 -124
303 -7 23 -32 82 -56 131 -25 48 -45 102 -45 119 0 21 -10 43 -30 65 -16 19
-30 43 -30 53 0 11 -7 33 -16 49 -22 42 -44 106 -44 130 0 11 -14 40 -30 64
-17 24 -40 76 -51 115 -13 45 -33 84 -53 106 -40 44 -70 95 -85 141 -7 20 -21
45 -31 54 -11 10 -20 26 -20 36 0 24 -89 96 -140 114 -51 18 -53 18 -68 3z"/>
<path d="M1572 8284 c-11 -8 -28 -11 -37 -8 -9 4 -24 -1 -35 -11 -10 -9 -24
-14 -29 -10 -19 11 -33 -5 -20 -21 10 -12 8 -18 -10 -30 -21 -15 -21 -17 -7
-40 20 -29 20 -34 1 -34 -12 0 -15 -10 -13 -39 1 -22 -4 -46 -11 -55 -14 -17
1 -56 22 -56 7 0 23 -13 35 -30 13 -16 32 -30 43 -30 11 0 24 -10 31 -25 6
-14 23 -27 39 -30 18 -4 48 -29 81 -67 39 -45 69 -69 113 -89 33 -15 71 -39
84 -53 14 -14 31 -26 40 -26 26 0 104 -43 168 -92 34 -26 72 -49 83 -51 11 -2
27 -13 35 -24 10 -14 24 -20 40 -19 14 2 32 -5 41 -15 10 -11 23 -19 30 -19 7
0 22 -12 33 -26 11 -14 24 -23 29 -20 6 3 15 -1 22 -9 7 -8 19 -15 26 -15 7 0
21 -12 30 -26 13 -19 24 -24 41 -21 12 2 27 -1 33 -8 5 -6 29 -20 52 -31 24
-10 56 -28 71 -41 16 -13 35 -23 42 -23 7 0 15 -4 17 -8 5 -14 87 -52 111 -52
12 0 51 -20 87 -45 36 -25 71 -45 79 -45 8 0 39 -14 69 -31 60 -34 210 -83
314 -103 65 -12 68 -12 88 9 l21 23 -42 78 c-56 106 -73 127 -176 214 -48 41
-107 96 -131 122 -24 25 -58 52 -75 59 -18 7 -41 21 -52 31 -95 86 -166 138
-190 138 -20 0 -71 37 -150 110 -34 30 -87 68 -118 84 -40 20 -68 43 -89 73
-24 36 -34 44 -53 39 -15 -4 -34 3 -56 19 -19 14 -72 54 -119 89 -47 35 -106
74 -130 86 -24 12 -66 38 -93 56 -27 19 -55 34 -62 34 -7 0 -29 13 -49 29 -21
17 -61 37 -89 47 -29 9 -65 23 -82 32 -40 20 -108 24 -133 6z"/>
<path d="M285 6430 c-11 -5 -35 -9 -52 -9 -21 -1 -33 -6 -33 -14 0 -8 -18 -22
-39 -32 -22 -9 -54 -35 -71 -57 -27 -34 -31 -43 -22 -63 9 -19 6 -27 -19 -51
-16 -15 -29 -32 -29 -36 0 -16 114 -124 143 -136 15 -7 39 -12 52 -12 13 0 27
-4 30 -10 3 -5 41 -10 83 -10 42 0 102 -7 132 -15 30 -8 84 -18 120 -21 36 -4
87 -15 113 -25 26 -11 67 -19 90 -19 23 -1 67 -10 97 -21 30 -11 78 -24 105
-29 28 -5 73 -16 100 -24 28 -9 69 -16 92 -16 44 0 217 -42 368 -89 64 -20
104 -27 136 -24 31 3 57 -1 79 -12 18 -9 60 -18 98 -19 40 -1 80 -9 101 -20
23 -12 44 -16 68 -11 38 7 163 -11 203 -30 33 -15 338 -19 464 -5 77 8 104 15
118 30 18 19 17 21 -59 81 -97 77 -205 148 -258 167 -22 9 -47 21 -55 27 -8 7
-26 15 -40 18 -28 6 -107 32 -160 52 -19 7 -66 23 -105 35 -38 13 -79 28 -90
35 -11 7 -42 15 -70 18 -27 3 -63 13 -80 21 -17 9 -55 16 -86 16 -41 0 -58 4
-63 15 -3 8 -14 15 -25 15 -11 0 -40 8 -63 19 -57 25 -134 49 -183 56 -22 4
-55 14 -74 22 -18 8 -47 13 -64 10 -35 -5 -95 9 -117 27 -8 7 -48 13 -89 14
-41 1 -97 8 -125 16 -28 8 -111 26 -185 40 -74 14 -142 33 -151 41 -13 11 -24
13 -51 5 -38 -12 -82 -5 -117 18 -17 11 -28 12 -46 4 -12 -5 -29 -6 -37 -2
-23 12 -113 19 -134 10z"/>
<path d="M2625 4280 c-22 -5 -105 -8 -185 -7 -120 1 -151 -2 -178 -17 -26 -13
-40 -15 -61 -8 -38 13 -227 -5 -257 -25 -19 -12 -27 -13 -39 -3 -10 9 -19 9
-27 2 -18 -14 -154 -35 -186 -29 -15 3 -49 1 -77 -4 -97 -18 -180 -26 -186
-18 -3 5 -18 5 -35 0 -16 -5 -47 -14 -69 -19 -22 -5 -55 -16 -72 -23 -27 -11
-39 -11 -65 -1 -30 11 -34 10 -49 -9 -18 -24 -97 -43 -168 -40 -38 1 -42 -1
-31 -14 15 -18 -1 -20 -19 -2 -10 10 -15 8 -26 -6 -9 -13 -20 -17 -34 -12 -11
3 -34 -1 -52 -10 -18 -10 -41 -14 -55 -11 -17 5 -24 2 -24 -9 0 -11 -11 -15
-40 -15 -22 0 -60 -5 -85 -12 -37 -10 -45 -16 -45 -35 0 -26 -12 -30 -30 -8
-16 19 -50 19 -78 0 -12 -9 -44 -19 -72 -22 -35 -4 -55 -12 -65 -26 -7 -11
-20 -17 -27 -14 -8 2 -29 -8 -48 -24 -26 -21 -30 -29 -17 -29 28 0 20 -14 -34
-60 -50 -42 -51 -44 -29 -52 22 -8 22 -9 5 -28 -20 -22 -20 -22 13 -39 16 -8
21 -18 17 -28 -3 -9 0 -20 7 -25 10 -6 9 -12 -6 -23 -17 -12 -18 -18 -8 -40
10 -21 15 -24 30 -16 26 14 88 -6 107 -35 8 -13 21 -21 29 -18 7 3 30 -1 49
-10 27 -11 45 -12 72 -5 19 6 40 7 45 4 6 -4 25 3 44 14 18 12 49 21 67 21 19
0 43 7 53 15 11 8 34 15 51 15 17 0 40 7 51 15 11 8 41 15 70 15 47 0 90 9
139 30 11 5 72 23 135 40 63 18 129 40 145 50 17 10 52 21 78 25 26 4 64 18
83 31 19 13 48 24 63 24 16 0 34 7 41 15 7 8 25 15 40 15 15 0 47 7 70 15 23
8 68 15 100 15 42 0 59 4 64 15 3 8 11 12 19 9 8 -3 20 2 27 11 7 8 22 15 33
15 11 0 39 9 61 19 23 11 55 22 71 25 42 7 169 44 235 68 30 11 66 22 80 25
14 2 32 7 40 11 8 3 20 7 25 7 26 4 71 19 81 26 6 5 42 18 80 30 38 11 80 31
94 44 14 12 45 33 70 45 25 13 60 35 79 49 l35 26 -35 6 -34 6 45 21 45 22
-100 -1 c-55 -1 -118 -5 -140 -9z"/>
<path d="M3335 2958 c-27 -6 -71 -19 -97 -29 -54 -22 -67 -24 -50 -7 45 45
-64 -4 -141 -64 -21 -17 -41 -27 -44 -24 -3 3 -23 -10 -43 -28 -21 -19 -76
-52 -123 -74 -46 -22 -87 -45 -91 -51 -4 -7 -16 -9 -26 -6 -14 5 -21 -2 -31
-30 -9 -25 -18 -34 -29 -30 -9 3 -25 -4 -35 -15 -10 -11 -28 -20 -41 -20 -13
0 -28 -9 -34 -20 -6 -11 -20 -20 -32 -20 -19 0 -34 -11 -120 -92 -16 -16 -37
-28 -47 -28 -20 0 -51 -30 -51 -50 0 -9 -6 -7 -21 6 -20 18 -21 18 -35 -1 -8
-10 -14 -22 -14 -27 0 -4 -9 -8 -20 -8 -12 0 -42 -20 -68 -44 -37 -34 -51 -42
-67 -35 -30 12 -32 11 -44 -20 -19 -44 -73 -92 -102 -89 -17 2 -27 -4 -34 -19
-7 -16 -18 -23 -37 -23 -30 0 -58 -23 -58 -49 0 -22 -26 -46 -60 -55 -57 -16
-79 -29 -84 -51 -4 -15 -16 -24 -34 -28 -17 -4 -33 -16 -40 -32 -7 -14 -27
-32 -46 -40 -18 -8 -36 -21 -39 -29 -3 -8 -19 -17 -36 -21 -19 -4 -37 -18 -48
-36 -10 -16 -25 -29 -35 -29 -10 0 -29 -17 -42 -37 -39 -59 -52 -73 -68 -73
-9 0 -18 -18 -25 -47 -22 -92 -7 -131 75 -201 59 -49 83 -53 145 -23 39 19 53
21 72 13 25 -12 38 -5 109 55 32 26 42 30 54 21 12 -10 18 -8 36 12 26 31 88
70 110 70 9 0 16 8 16 20 0 13 12 25 35 34 20 9 58 34 86 58 31 26 60 42 77
43 19 0 30 8 40 28 9 18 21 27 38 27 16 0 28 8 36 25 12 28 19 30 35 14 8 -8
15 -3 27 19 8 16 28 34 43 40 15 5 48 29 71 53 42 42 111 86 197 127 22 11 66
42 97 71 31 28 60 51 65 51 4 0 35 20 68 45 33 25 65 45 72 45 14 0 163 117
163 128 0 15 41 52 64 58 33 8 224 196 237 233 6 17 19 33 30 36 23 8 50 58
73 134 21 71 21 115 1 107 -12 -4 -14 0 -9 19 7 28 7 28 -71 13z"/>
<path d="M4161 2102 c-66 -59 -189 -210 -220 -269 -6 -12 -29 -43 -51 -68 -22
-25 -44 -63 -50 -85 -6 -22 -14 -40 -18 -40 -13 0 -123 -170 -126 -193 -2 -26
-48 -101 -105 -173 -23 -28 -54 -80 -70 -115 -16 -35 -45 -80 -65 -98 -24 -24
-36 -44 -36 -62 0 -31 -47 -126 -115 -234 -24 -38 -47 -81 -50 -95 -3 -14 -22
-59 -41 -100 -19 -41 -46 -97 -59 -125 -61 -131 -77 -263 -38 -307 9 -10 13
-24 10 -32 -3 -8 3 -22 13 -31 10 -9 16 -23 14 -30 -7 -18 16 -31 27 -14 6 11
12 10 28 -5 18 -16 21 -16 44 -1 22 14 25 14 30 0 7 -17 42 -20 52 -4 5 7 15
5 31 -5 19 -13 28 -14 49 -4 14 6 25 19 25 28 0 9 11 27 25 40 14 13 23 30 20
38 -2 7 6 23 19 35 12 12 26 37 29 55 4 20 29 59 62 97 38 43 60 79 71 114 8
29 24 61 35 72 10 10 19 28 19 40 0 23 83 200 113 241 11 14 17 31 13 36 -3 6
3 17 15 26 16 11 20 22 17 45 -3 19 1 36 9 42 7 6 13 20 13 29 0 10 10 27 23
37 12 10 21 25 19 35 -2 9 2 19 7 23 6 3 11 14 11 24 0 10 11 26 25 35 18 12
24 23 20 36 -3 10 3 36 15 57 11 21 20 43 20 49 0 7 14 38 30 69 17 31 30 64
30 72 0 8 5 24 12 36 7 12 11 33 9 47 -2 26 41 134 58 144 5 4 13 28 17 54 4
26 16 65 27 87 23 45 54 195 64 303 5 61 3 75 -12 92 -10 11 -23 20 -29 20 -6
0 -44 -31 -85 -68z"/>
</g>
</svg>
