<?xml version="1.0" standalone="no"?>
<!DOCTYPE svg PUBLIC "-//W3C//DTD SVG 20010904//EN"
 "http://www.w3.org/TR/2001/REC-SVG-20010904/DTD/svg10.dtd">
<svg version="1.0" xmlns="http://www.w3.org/2000/svg"
 width="440.000000pt" height="488.000000pt" viewBox="0 0 440.000000 488.000000"
 preserveAspectRatio="xMidYMid meet">

<g transform="translate(0.000000,488.000000) scale(0.100000,-0.100000)"
fill="#F6CE21" stroke="none">
<path d="M3485 4817 c-14 -40 -67 -289 -77 -356 -9 -67 -8 -103 6 -213 50
-380 147 -764 336 -1321 169 -499 170 -501 285 -558 116 -57 177 -48 233 34
48 69 57 110 56 242 0 111 -5 136 -53 325 -234 917 -367 1402 -411 1497 -57
122 -144 227 -262 317 -43 32 -107 51 -113 33z"/>
<path d="M1151 3641 c-10 -7 -13 -27 -9 -83 7 -115 42 -169 239 -378 161 -170
874 -873 1094 -1080 175 -164 571 -447 657 -470 156 -43 301 115 243 265 -30
80 -102 166 -338 401 -128 127 -302 303 -387 390 -223 230 -396 371 -853 694
-264 188 -334 229 -432 255 -64 16 -192 20 -214 6z"/>
<path d="M295 1206 c-75 -17 -187 -60 -232 -87 -29 -18 -33 -26 -33 -63 0 -50
38 -100 129 -170 128 -98 226 -140 511 -216 107 -28 395 -107 640 -175 886
-246 974 -267 1230 -301 141 -18 191 -14 266 20 149 69 176 266 52 382 -67 64
-105 76 -708 228 -206 52 -492 127 -635 166 -143 39 -393 106 -555 147 l-295
75 -155 4 c-108 2 -173 -1 -215 -10z"/>
</g>
</svg>
